{
  "accessors": [
    {
      "bufferView": 1,
      "componentType": 5126,
      "count": 12,
      "max": [
        0.9003230333328247,
        3.1865530014038086,
        0.09023600071668625
      ],
      "min": [
        0.7781740427017212,
        3.1516928672790527,
        0.0858360007405281
      ],
      "type": "VEC3"
    },
    {
      "bufferView": 0,
      "componentType": 5125,
      "count": 28,
      "type": "SCALAR"
    },
    {
      "bufferView": 1,
      "byteOffset": 144,
      "componentType": 5126,
      "count": 768,
      "max": [
        1.323099970817566,
        2.9923179149627686,
        0.1460990011692047
      ],
      "min": [
        0.19334200024604797,
        1.835447907447815,
        0.02993299812078476
      ],
      "type": "VEC3"
    },
    {
      "bufferView": 1,
      "byteOffset": 9360,
      "componentType": 5126,
      "count": 768,
      "max": [
        0.9996156096458435,
        0.6361032724380493,
        1.0
      ],
      "min": [
        -0.6361032724380493,
        -0.6361032724380493,
        -1.0
      ],
      "type": "VEC3"
    },
    {
      "bufferView": 0,
      "byteOffset": 112,
      "componentType": 5125,
      "count": 3072,
      "type": "SCALAR"
    },
    {
      "bufferView": 1,
      "byteOffset": 18576,
      "componentType": 5126,
      "count": 510,
      "max": [
        1.3040130138397217,
        4.717713832855225,
        0.10515499860048294
      ],
      "min": [
        0.19627399742603302,
        2.1392428874969482,
        0.0709180012345314
      ],
      "type": "VEC3"
    },
    {
      "bufferView": 1,
      "byteOffset": 24696,
      "componentType": 5126,
      "count": 510,
      "max": [
        1.0,
        0.9076137542724609,
        1.0
      ],
      "min": [
        -1.0,
        -0.885412335395813,
        -1.0
      ],
      "type": "VEC3"
    },
    {
      "bufferView": 0,
      "byteOffset": 12400,
      "componentType": 5125,
      "count": 1143,
      "type": "SCALAR"
    },
    {
      "bufferView": 1,
      "byteOffset": 30816,
      "componentType": 5126,
      "count": 2123,
      "max": [
        1.305055022239685,
        4.73213005065918,
        0.1130789965391159
      ],
      "min": [
        0.1903260052204132,
        2.139241933822632,
        0.06299400329589844
      ],
      "type": "VEC3"
    },
    {
      "bufferView": 1,
      "byteOffset": 56292,
      "componentType": 5126,
      "count": 2123,
      "max": [
        1.0,
        1.0,
        1.0
      ],
      "min": [
        -1.0,
        -1.0,
        -1.0
      ],
      "type": "VEC3"
    },
    {
      "bufferView": 0,
      "byteOffset": 16972,
      "componentType": 5125,
      "count": 4638,
      "type": "SCALAR"
    },
    {
      "bufferView": 1,
      "byteOffset": 81768,
      "componentType": 5126,
      "count": 14,
      "max": [
        0.9999769926071167,
        4.959558010101318,
        0.14333200454711914
      ],
      "min": [
        0.8455870151519775,
        0.05252695083618164,
        0.032739996910095215
      ],
      "type": "VEC3"
    },
    {
      "bufferView": 0,
      "byteOffset": 35524,
      "componentType": 5125,
      "count": 18,
      "type": "SCALAR"
    },
    {
      "bufferView": 1,
      "byteOffset": 81936,
      "componentType": 5126,
      "count": 3529,
      "max": [
        1.3755760192871094,
        6.003022193908691,
        0.17607200145721436
      ],
      "min": [
        0.0,
        0.0,
        0.0
      ],
      "type": "VEC3"
    },
    {
      "bufferView": 1,
      "byteOffset": 124284,
      "componentType": 5126,
      "count": 3529,
      "max": [
        1.0,
        0.998890221118927,
        1.0
      ],
      "min": [
        -1.0,
        -1.0,
        -1.0
      ],
      "type": "VEC3"
    },
    {
      "bufferView": 0,
      "byteOffset": 35596,
      "componentType": 5125,
      "count": 12915,
      "type": "SCALAR"
    },
    {
      "bufferView": 1,
      "byteOffset": 166632,
      "componentType": 5126,
      "count": 1576,
      "max": [
        1.3882900476455688,
        5.349252700805664,
        0.15968500077724457
      ],
      "min": [
        0.7677140235900879,
        2.0537848472595215,
        0.016387000679969788
      ],
      "type": "VEC3"
    },
    {
      "bufferView": 1,
      "byteOffset": 185544,
      "componentType": 5126,
      "count": 1576,
      "max": [
        0.8665832281112671,
        0.9981803894042969,
        1.0
      ],
      "min": [
        -1.0,
        -0.9984250664710999,
        -1.0
      ],
      "type": "VEC3"
    },
    {
      "bufferView": 0,
      "byteOffset": 87256,
      "componentType": 5125,
      "count": 5256,
      "type": "SCALAR"
    },
    {
      "bufferView": 1,
      "byteOffset": 204456,
      "componentType": 5126,
      "count": 4484,
      "max": [
        1.279075026512146,
        5.816178321838379,
        0.15649199485778809
      ],
      "min": [
        0.23166200518608093,
        0.06452107429504395,
        0.019579999148845673
      ],
      "type": "VEC3"
    },
    {
      "bufferView": 1,
      "byteOffset": 258264,
      "componentType": 5126,
      "count": 4484,
      "max": [
        1.0,
        1.0,
        1.0
      ],
      "min": [
        -1.0,
        -1.0,
        -1.0
      ],
      "type": "VEC3"
    },
    {
      "bufferView": 0,
      "byteOffset": 108280,
      "componentType": 5125,
      "count": 14388,
      "type": "SCALAR"
    }
  ],
  "asset": {
    "extras": {
      "author": "Don42 (https://sketchfab.com/Don42)",
      "license": "CC-BY-NC-SA-4.0 (http://creativecommons.org/licenses/by-nc-sa/4.0/)",
      "source": "https://sketchfab.com/3d-models/xenoblade-chronicles-monado-free-e8777b7056fe4414a03d4c27d0e7d30f",
      "title": "Xenoblade Chronicles | Monado [Free]"
    },
    "generator": "Sketchfab-12.67.0",
    "version": "2.0"
  },
  "bufferViews": [
    {
      "buffer": 0,
      "byteLength": 165832,
      "name": "floatBufferViews",
      "target": 34963
    },
    {
      "buffer": 0,
      "byteLength": 312072,
      "byteOffset": 165832,
      "byteStride": 12,
      "name": "floatBufferViews",
      "target": 34962
    }
  ],
  "buffers": [
    {
      "byteLength": 477904,
      "uri": "scene.bin"
    }
  ],
  "extensionsUsed": [
    "KHR_materials_clearcoat"
  ],
  "materials": [
    {
      "doubleSided": true,
      "extensions": {
        "KHR_materials_clearcoat": {
          "clearcoatFactor": 1.0,
          "clearcoatRoughnessFactor": 0.3299823347277993
        }
      },
      "name": "Material.000",
      "pbrMetallicRoughness": {
        "baseColorFactor": [
          0.13163126579999998,
          0.08280999319999996,
          0.031214448199999995,
          1.0
        ],
        "roughnessFactor": 0.251714939
      }
    },
    {
      "doubleSided": true,
      "name": "Material.001",
      "pbrMetallicRoughness": {
        "baseColorFactor": [
          0.5259747095,
          0.2818923159,
          0.1189084168,
          1.0
        ],
        "metallicFactor": 0.4834222561,
        "roughnessFactor": 0.35804115849999996
      }
    },
    {
      "doubleSided": true,
      "extensions": {
        "KHR_materials_clearcoat": {
          "clearcoatFactor": 0.22061369557747212,
          "clearcoatRoughnessFactor": 0.26
        }
      },
      "name": "material",
      "pbrMetallicRoughness": {
        "baseColorFactor": [
          0.8840801335719362,
          0.02357645991773461,
          0.017945933313838928,
          1.0
        ],
        "metallicFactor": 0.75,
        "roughnessFactor": 0.43000000000000005
      }
    },
    {
      "doubleSided": true,
      "extensions": {
        "KHR_materials_clearcoat": {
          "clearcoatFactor": 1.0,
          "clearcoatRoughnessFactor": 0.09301694990209039
        }
      },
      "name": "Red_dark",
      "pbrMetallicRoughness": {
        "baseColorFactor": [
          0.49203814100000004,
          0.021564555000000013,
          0.021564555000000013,
          1.0
        ],
        "metallicFactor": 0.75,
        "roughnessFactor": 0.30000000000000004
      }
    },
    {
      "doubleSided": true,
      "emissiveFactor": [
        0.0,
        0.9250664770000011,
        1.0
      ],
      "name": "bloom_blue",
      "pbrMetallicRoughness": {
        "baseColorFactor": [
          0.0,
          0.03870771990000006,
          0.2350930709999999,
          1.0
        ],
        "metallicFactor": 0.5
      }
    }
  ],
  "meshes": [
    {
      "name": "Object_0",
      "primitives": [
        {
          "attributes": {
            "POSITION": 0
          },
          "indices": 1,
          "material": 1,
          "mode": 1
        }
      ]
    },
    {
      "name": "Object_1",
      "primitives": [
        {
          "attributes": {
            "NORMAL": 3,
            "POSITION": 2
          },
          "indices": 4,
          "material": 3,
          "mode": 4
        }
      ]
    },
    {
      "name": "Object_2",
      "primitives": [
        {
          "attributes": {
            "NORMAL": 6,
            "POSITION": 5
          },
          "indices": 7,
          "material": 0,
          "mode": 4
        }
      ]
    },
    {
      "name": "Object_3",
      "primitives": [
        {
          "attributes": {
            "NORMAL": 9,
            "POSITION": 8
          },
          "indices": 10,
          "material": 1,
          "mode": 4
        }
      ]
    },
    {
      "name": "Object_4",
      "primitives": [
        {
          "attributes": {
            "POSITION": 11
          },
          "indices": 12,
          "material": 2,
          "mode": 1
        }
      ]
    },
    {
      "name": "Object_5",
      "primitives": [
        {
          "attributes": {
            "NORMAL": 14,
            "POSITION": 13
          },
          "indices": 15,
          "material": 2,
          "mode": 4
        }
      ]
    },
    {
      "name": "Object_6",
      "primitives": [
        {
          "attributes": {
            "NORMAL": 17,
            "POSITION": 16
          },
          "indices": 18,
          "material": 2,
          "mode": 4
        }
      ]
    },
    {
      "name": "Object_7",
      "primitives": [
        {
          "attributes": {
            "NORMAL": 20,
            "POSITION": 19
          },
          "indices": 21,
          "material": 4,
          "mode": 4
        }
      ]
    }
  ],
  "nodes": [
    {
      "children": [
        1
      ],
      "matrix": [
        1.0,
        0.0,
        0.0,
        0.0,
        0.0,
        2.220446049250313e-16,
        -1.0,
        0.0,
        0.0,
        1.0,
        2.220446049250313e-16,
        0.0,
        0.0,
        0.0,
        0.0,
        1.0
      ],
      "name": "Sketchfab_model"
    },
    {
      "children": [
        2
      ],
      "matrix": [
        1.0,
        0.0,
        0.0,
        0.0,
        0.0,
        1.0,
        0.0,
        0.0,
        0.0,
        0.0,
        1.0,
        0.0,
        0.0011840000515803695,
        -2.9997639656066895,
        -0.0914359986782074,
        1.0
      ],
      "name": "Monado.obj.cleaner.gles"
    },
    {
      "children": [
        3,
        4,
        5,
        6,
        7,
        8,
        9,
        10
      ],
      "name": "Object_2"
    },
    {
      "mesh": 0,
      "name": "Object_3"
    },
    {
      "mesh": 1,
      "name": "Object_4"
    },
    {
      "mesh": 2,
      "name": "Object_5"
    },
    {
      "mesh": 3,
      "name": "Object_6"
    },
    {
      "mesh": 4,
      "name": "Object_7"
    },
    {
      "mesh": 5,
      "name": "Object_8"
    },
    {
      "mesh": 6,
      "name": "Object_9"
    },
    {
      "mesh": 7,
      "name": "Object_10"
    }
  ],
  "scene": 0,
  "scenes": [
    {
      "name": "Sketchfab_Scene",
      "nodes": [
        0
      ]
    }
  ]
}
